<svg width="24" height="25" viewBox="0 0 24 25" fill="none" xmlns="http://www.w3.org/2000/svg">
<path d="M18 8.5C18 6.9087 17.3679 5.38258 16.2426 4.25736C15.1174 3.13214 13.5913 2.5 12 2.5C10.4087 2.5 8.88258 3.13214 7.75736 4.25736C6.63214 5.38258 6 6.9087 6 8.5C6 15.5 3 17.5 3 17.5H21C21 17.5 18 15.5 18 8.5Z" stroke="#566474" stroke-width="1.5" stroke-linecap="round" stroke-linejoin="round"/>
<path d="M16 17.5C15.5935 18.4125 15.01 19.1699 14.308 19.6964C13.606 20.2229 12.8101 20.5 12 20.5C11.1899 20.5 10.394 20.2229 9.69196 19.6964C8.98996 19.1699 8.4065 18.4125 8 17.5" stroke="#566474" stroke-width="1.5" stroke-linecap="round" stroke-linejoin="round"/>
</svg>
